<svg xmlns="http://www.w3.org/2000/svg" width="48" height="48">
    <path fill="none" fill-rule="evenodd" d="M0 0h48v48H0V0z"/>
    <path fill="#FF8237" fill-rule="evenodd" d="M43.061 14.06a1.495 1.495 0 0 1-2.121 0l-.94-.939-2.622 2.621A17.415 17.415 0 0 1 41.499 27c0 9.651-7.849 17.5-17.5 17.5a1.5 1.5 0 0 1 0-3C31.996 41.5 38.5 34.996 38.5 27c0-7.995-6.504-14.5-14.501-14.5-6.6 0-12.362 4.472-14.012 10.874a1.499 1.499 0 1 1-2.903-.748C9.074 14.898 16.031 9.5 23.999 9.5c4.287 0 8.213 1.555 11.259 4.122L37.879 11l-.939-.94a1.497 1.497 0 0 1 0-2.121 1.501 1.501 0 0 1 2.121 0l4 4a1.501 1.501 0 0 1 0 2.121zM28.001 6.5H20a1.5 1.5 0 0 1 0-3h8.001a1.5 1.5 0 0 1 0 3zM17.5 31a1.5 1.5 0 0 1-1.5 1.5H6a1.5 1.5 0 0 1 0-3h10a1.5 1.5 0 0 1 1.5 1.5zm-.561-11.06a1.5 1.5 0 0 1 2.121 0l6.001 5.999a1.5 1.5 0 1 1-2.122 2.121l-6-5.999a1.5 1.5 0 0 1 0-2.121zM10 35.5h6a1.5 1.5 0 0 1 0 3h-6a1.5 1.5 0 0 1 0-3zm4 6h2a1.5 1.5 0 1 1 0 3h-2a1.5 1.5 0 0 1 0-3z"/>
</svg>
