<svg xmlns="http://www.w3.org/2000/svg" width="48" height="48">
    <path fill="none" fill-rule="evenodd" d="M0 0h48v48H0V0z"/>
    <path fill="#4C4C6D" fill-rule="evenodd" d="M36 26.5h-.63c-.723 4.526-4.643 8-9.37 8h-.5v5H30a1.5 1.5 0 0 1 0 3H18a1.5 1.5 0 1 1 0-3h4.5v-5H22c-4.726 0-8.647-3.474-9.37-8H12c-4.136 0-7.5-3.364-7.5-7.5v-4c0-1.929 1.571-3.5 3.5-3.5h4.5V9c0-1.93 1.571-3.5 3.5-3.5h16c1.929 0 3.5 1.57 3.5 3.5v2.5H40c1.929 0 3.5 1.571 3.5 3.5v4c0 4.136-3.366 7.5-7.5 7.5zm-28-12a.502.502 0 0 0-.501.5v4c0 2.482 2.02 4.5 4.501 4.5h.5v-9H8zM32.5 9c0-.275-.225-.5-.5-.5H16c-.275 0-.5.225-.5.5v16c0 3.584 2.916 6.5 6.5 6.5h4c3.584 0 6.5-2.916 6.5-6.5V9zm8 6c0-.275-.225-.5-.5-.5h-4.5v9h.5c2.48 0 4.5-2.018 4.5-4.5v-4z"/>
</svg>
