<svg xmlns="http://www.w3.org/2000/svg" width="48" height="48">
    <path fill="none" d="M0 0h48v48H0V0z"/>
    <path fill="#4C4C6D" fill-rule="evenodd" d="M45.228 19.86a1.494 1.494 0 0 1-2.087.368L40.5 18.38V41a1.5 1.5 0 0 1-1.5 1.5H9A1.501 1.501 0 0 1 7.499 41V18.381L4.86 20.228a1.5 1.5 0 1 1-1.721-2.457l20.001-14a1.5 1.5 0 0 1 1.719 0l20.001 14c.68.475.843 1.411.368 2.089zM20.5 39.5h7V31c0-1.379-1.121-2.5-2.5-2.5h-2a2.502 2.502 0 0 0-2.5 2.5v8.5zm17-23.22L24 6.831l-13.5 9.45V39.5h7V31c0-3.033 2.467-5.5 5.5-5.5h2c3.033 0 5.5 2.467 5.5 5.5v8.5h7V16.28z"/>
</svg>
