<svg xmlns="http://www.w3.org/2000/svg" width="48" height="48">
    <path fill="none" fill-rule="evenodd" d="M0 0h48v48H0V0z"/>
    <path fill="#4C4C6D" fill-rule="evenodd" d="M44.658 39.504a6.117 6.117 0 0 1-5.34 3.074H8.681a6.117 6.117 0 0 1-5.34-3.074 6.116 6.116 0 0 1-.02-6.164L18.638 6.533a6.109 6.109 0 0 1 5.361-3.111 6.113 6.113 0 0 1 5.363 3.111L44.68 33.34a6.11 6.11 0 0 1-.022 6.164zm-2.583-4.676L26.756 8.022a3.141 3.141 0 0 0-2.757-1.6 3.134 3.134 0 0 0-2.754 1.6L5.925 34.828a3.145 3.145 0 0 0 .011 3.17 3.145 3.145 0 0 0 2.745 1.58h30.637a3.149 3.149 0 0 0 2.747-1.58c.574-.99.578-2.176.01-3.17zM24 33.75a2.002 2.002 0 0 1-1.419-3.41c.377-.381.88-.59 1.417-.59 1.103 0 2.002.897 2.002 2s-.897 2-2 2zm0-7a1.5 1.5 0 0 1-1.5-1.5v-7.5a1.5 1.5 0 1 1 3 0v7.5a1.5 1.5 0 0 1-1.5 1.5z"/>
</svg>
