<svg xmlns="http://www.w3.org/2000/svg" width="48" height="48">
    <path fill="none" fill-rule="evenodd" d="M0 0h48v48H0V0z"/>
    <path fill="#4C4C6D" fill-rule="evenodd" d="M28.001 45.5h-3.579a13.474 13.474 0 0 1-11.232-6.012L6.165 28.953a4.622 4.622 0 0 1 .577-5.815 4.613 4.613 0 0 1 6.517 0l1.241 1.241V11c0-2.481 2.019-4.5 4.5-4.5.536 0 1.044.111 1.521.283C20.637 4.404 22.593 2.5 25 2.5c2.406 0 4.363 1.904 4.478 4.284A4.455 4.455 0 0 1 31 6.5c2.406 0 4.363 1.904 4.478 4.283A4.454 4.454 0 0 1 37 10.5a4.505 4.505 0 0 1 4.499 4.5v17c0 7.443-6.056 13.5-13.498 13.5zM38.5 15c0-.827-.673-1.5-1.5-1.5-.826 0-1.5.673-1.5 1.5v9a1.5 1.5 0 0 1-3 0V11c0-.827-.674-1.5-1.5-1.5s-1.5.673-1.5 1.5v13a1.5 1.5 0 0 1-3 0V7c0-.827-.674-1.5-1.5-1.5s-1.5.673-1.5 1.5v17a1.5 1.5 0 0 1-3 0V11a1.501 1.501 0 0 0-3 0v17a1.5 1.5 0 0 1-2.561 1.06l-3.801-3.801a1.61 1.61 0 0 0-2.476 2.032l7.023 10.533a10.48 10.48 0 0 0 8.737 4.676h3.579C33.789 42.5 38.5 37.789 38.5 32V15z"/>
</svg>
