<svg xmlns="http://www.w3.org/2000/svg" width="48" height="48">
    <path fill="none" fill-rule="evenodd" d="M0 0h48v48H0V0z"/>
    <path fill="#FF8237" fill-rule="evenodd" d="M36 44.5H12.001A5.506 5.506 0 0 1 6.5 39V13c0-3.033 2.467-5.5 5.501-5.5h3.278l2.149-2.687A3.483 3.483 0 0 1 20.161 3.5h7.676a3.48 3.48 0 0 1 2.735 1.316L32.721 7.5H36c3.032 0 5.5 2.467 5.5 5.5v26c0 3.033-2.468 5.5-5.5 5.5zM30.5 9.526l-2.272-2.838a.496.496 0 0 0-.391-.188h-7.676a.497.497 0 0 0-.391.188l-2.271 2.838V11c0 .275.226.5.501.5h12c.275 0 .5-.225.5-.5V9.526zm8 3.474c0-1.379-1.121-2.5-2.5-2.5h-2.5v.5c0 1.93-1.57 3.5-3.5 3.5H18c-1.929 0-3.5-1.57-3.5-3.5v-.5h-2.499A2.502 2.502 0 0 0 9.5 13v26c0 1.379 1.121 2.5 2.501 2.5H36c1.379 0 2.5-1.121 2.5-2.5V13zM32 34.5H16a1.5 1.5 0 1 1 0-3h16a1.5 1.5 0 1 1 0 3zm0-10H16a1.5 1.5 0 1 1 0-3h16a1.5 1.5 0 0 1 0 3z"/>
</svg>
