<svg id="ic_calendar-24px" xmlns="http://www.w3.org/2000/svg" width="20" height="20" viewBox="0 0 20 20">
  <path id="Path_3" data-name="Path 3" d="M0,0H20V20H0Z" fill="none"/>
  <path id="Path_4" data-name="Path 4" d="M16.4,2.636h-.8V1.818a.8.8,0,1,0-1.6,0v.818H6V1.818a.8.8,0,1,0-1.6,0v.818H3.6A1.623,1.623,0,0,0,2,4.273V17.364A1.623,1.623,0,0,0,3.6,19H16.4A1.623,1.623,0,0,0,18,17.364V4.273A1.623,1.623,0,0,0,16.4,2.636Zm-.8,14.727H4.4a.812.812,0,0,1-.8-.818V6.727H16.4v9.818A.812.812,0,0,1,15.6,17.364Z" fill="#d9d9d9"/>
</svg>
