<svg xmlns="http://www.w3.org/2000/svg" width="48" height="48">
    <path fill="none" d="M0 0h48v48H0V0z"/>
    <path fill="#4C4C6D" fill-rule="evenodd" d="M44 44.5H4a1.5 1.5 0 1 1 0-3h40a1.5 1.5 0 0 1 0 3zm-1.706-6H5.707a1.5 1.5 0 0 1 0-3h36.587a1.5 1.5 0 0 1 0 3zM33.5 20.696V31a1.5 1.5 0 0 1-3 0V20.696a1.5 1.5 0 0 1 3 0zm-8 0V31a1.501 1.501 0 0 1-3 0V20.696a1.5 1.5 0 0 1 3 0zm-8 0V31a1.5 1.5 0 0 1-3 0V20.696a1.5 1.5 0 0 1 3 0zM41.998 16.5a1.48 1.48 0 0 1-.498-.098V31a1.5 1.5 0 0 1-2.999 0V14.772L24 6.716 9.5 14.772V31a1.5 1.5 0 0 1-3 0V16.402a1.48 1.48 0 0 1-.499.098 1.5 1.5 0 0 1-.73-2.811l18-10c.051-.029.108-.029.161-.051.094-.039.185-.071.285-.091.095-.018.186-.024.282-.024.096-.001.188.006.284.024.099.02.19.051.283.09.054.022.111.023.163.052l18 10c.724.402.984 1.315.581 2.039a1.497 1.497 0 0 1-1.312.772z"/>
</svg>
