<svg id="ic_participant-24px" xmlns="http://www.w3.org/2000/svg" width="20" height="20" viewBox="0 0 20 20">
  <g id="Group_40" data-name="Group 40">
    <rect id="Rectangle_138" data-name="Rectangle 138" width="20" height="20" fill="none"/>
    <rect id="Rectangle_139" data-name="Rectangle 139" width="20" height="20" fill="none"/>
  </g>
  <g id="Group_42" data-name="Group 42" transform="translate(4.896 0.834)">
    <g id="Group_41" data-name="Group 41">
      <path id="Path_40" data-name="Path 40" d="M14.226,5.834A1.665,1.665,0,1,0,16.5,5.226,1.671,1.671,0,0,0,14.226,5.834Z" transform="translate(-7.23 -1.668)" fill="#d9d9d9"/>
      <path id="Path_41" data-name="Path 41" d="M14.179,8.925l-2.167-1.25A4.187,4.187,0,0,1,10.2,2.616a.83.83,0,0,0-1.55-.592A5.853,5.853,0,0,0,9.862,8.083L5.987,14.791a.836.836,0,1,0,1.45.833l.833-1.442,1.442.833L7.629,18.625a.836.836,0,1,0,1.45.833l4.825-8.35a4.191,4.191,0,0,1,.55,3.933.832.832,0,0,0,1.558.583A5.962,5.962,0,0,0,14.179,8.925Z" transform="translate(-5.875 -1.083)" fill="#d9d9d9"/>
      <path id="Path_42" data-name="Path 42" d="M12.625,3.333a1.251,1.251,0,1,0-.458-1.708A1.253,1.253,0,0,0,12.625,3.333Z" transform="translate(-6.896 -1)" fill="#d9d9d9"/>
    </g>
  </g>
</svg>
