<svg id="ic_shopping_cart-24px" xmlns="http://www.w3.org/2000/svg" width="20" height="20" viewBox="0 0 20 20">
  <path id="Path_45" data-name="Path 45" d="M0,0H20V20H0Z" fill="none"/>
  <path id="Path_46" data-name="Path 46" d="M6,15.333A1.667,1.667,0,1,0,7.667,17,1.664,1.664,0,0,0,6,15.333ZM1,2.833a.836.836,0,0,0,.833.833h.833l3,6.325L4.542,12.025A1.67,1.67,0,0,0,6,14.5h9.167a.833.833,0,0,0,0-1.667H6l.917-1.667h6.208a1.659,1.659,0,0,0,1.458-.858L17.567,4.9a.83.83,0,0,0-.725-1.233H4.508L3.95,2.475A.827.827,0,0,0,3.2,2H1.833A.836.836,0,0,0,1,2.833Zm13.333,12.5A1.667,1.667,0,1,0,16,17,1.664,1.664,0,0,0,14.333,15.333Z" transform="translate(-0.167 -0.333)" fill="#ff7a1f"/>
</svg>
