<svg xmlns="http://www.w3.org/2000/svg" width="48" height="48">
    <path fill="none" fill-rule="evenodd" d="M0 0h48v48H0V0z"/>
    <path fill="#4C4C6D" fill-rule="evenodd" d="M41.055 23.051v17.226H44a1.5 1.5 0 0 1 0 3H4a1.5 1.5 0 1 1 0-3h2.944V23.051a6.055 6.055 0 0 1-3.603-2.689 5.67 5.67 0 0 1-.214-5.548l3.43-6.755c1.031-2.027 3.217-3.338 5.567-3.338h23.753c2.352 0 4.537 1.311 5.567 3.34l3.431 6.753a5.662 5.662 0 0 1-.217 5.548 6.042 6.042 0 0 1-3.603 2.689zM21.056 40.277h5.889v-7.388A2.946 2.946 0 0 0 24 29.946a2.946 2.946 0 0 0-2.944 2.943v7.388zm-3 0v-7.388A5.95 5.95 0 0 1 24 26.945a5.952 5.952 0 0 1 5.945 5.944v7.388h8.109V23.15c-1.523-.278-2.858-1.008-3.804-2.031-1.219 1.318-3.061 2.159-5.117 2.159-2.066 0-3.916-.849-5.133-2.176-1.218 1.327-3.066 2.176-5.132 2.176-2.063 0-3.908-.846-5.125-2.166-.947 1.032-2.28 1.762-3.798 2.039v17.126h8.111zm24.143-24.104l-3.432-6.754c-.522-1.031-1.658-1.697-2.89-1.697H12.124c-1.233 0-2.368.666-2.892 1.697L5.8 16.173a2.652 2.652 0 0 0 .104 2.628c.558.915 1.568 1.467 2.702 1.476 2.001-.002 3.629-1.268 3.629-2.824v-.035-.063a1.5 1.5 0 0 1 2.999 0c0 1.612 1.631 2.922 3.634 2.922 2.002 0 3.632-1.31 3.632-2.922a1.501 1.501 0 0 1 3 0c0 1.612 1.629 2.922 3.633 2.922s3.633-1.31 3.633-2.922a1.5 1.5 0 0 1 3 0c0 1.655 1.629 2.922 3.632 2.922 1.127-.008 2.14-.559 2.698-1.476.5-.819.536-1.777.103-2.628z"/>
</svg>
