<svg id="ic_netball-24px" xmlns="http://www.w3.org/2000/svg" width="32" height="32" viewBox="0 0 32 32">
  <g id="Group_37" data-name="Group 37">
    <rect id="Rectangle_136" data-name="Rectangle 136" width="32" height="32" fill="none"/>
    <rect id="Rectangle_137" data-name="Rectangle 137" width="32" height="32" fill="none"/>
  </g>
  <g id="Group_39" data-name="Group 39" transform="translate(2.667 2.733)">
    <g id="Group_38" data-name="Group 38">
      <path id="Path_34" data-name="Path 34" d="M7.333,4.01A13.289,13.289,0,0,0,3.187,20.143l4.147-2.4Z" transform="translate(-2 -1.397)" fill="#fff"/>
      <path id="Path_35" data-name="Path 35" d="M12,14.543V2.05A13.313,13.313,0,0,0,8,3.1v13.76Z" transform="translate(0 -2.05)" fill="#fff"/>
      <path id="Path_36" data-name="Path 36" d="M14.7,13.15,3.89,19.39A13.188,13.188,0,0,0,6.8,22.323L18.7,15.47Z" transform="translate(-1.37 1.65)" fill="#fff"/>
      <path id="Path_37" data-name="Path 37" d="M13,7.96v4.613l10.813,6.24a13.3,13.3,0,0,0,1.093-3.973Z" transform="translate(1.667 -0.08)" fill="#fff"/>
      <path id="Path_38" data-name="Path 38" d="M8.07,22.92a13.339,13.339,0,0,0,16.053-4.48l-4.147-2.4Z" transform="translate(0.023 2.613)" fill="#fff"/>
      <path id="Path_39" data-name="Path 39" d="M24.893,13.73A13.329,13.329,0,0,0,13,2.05v4.8Z" transform="translate(1.667 -2.05)" fill="#fff"/>
    </g>
  </g>
</svg>
