<svg xmlns="http://www.w3.org/2000/svg" width="48" height="48">
    <path fill="none" d="M0 0h48v48H0V0z"/>
    <path fill="#FF8237" fill-rule="evenodd" d="M38 44.5H10A5.506 5.506 0 0 1 4.5 39V13c0-3.033 2.467-5.5 5.5-5.5h4.5V5a1.5 1.5 0 1 1 2.999 0v2.5H30.5V5a1.5 1.5 0 1 1 3 0v2.5H38c3.034 0 5.5 2.467 5.5 5.5v26c0 3.033-2.466 5.5-5.5 5.5zm0-3a2.501 2.501 0 0 0 2.499-2.5v-6.5H31.5v9H38zm-9.5 0v-9h-9.001v9H28.5zm-21-12h9v-9h-9v9zm11.999 0H28.5v-9h-9.001v9zM10 41.5h6.5v-9h-9V39c0 1.379 1.121 2.5 2.5 2.5zM40.499 13c0-1.379-1.12-2.5-2.499-2.5h-4.5V13a1.5 1.5 0 0 1-3 0v-2.5H17.499V13a1.5 1.5 0 1 1-2.999 0v-2.5H10A2.502 2.502 0 0 0 7.5 13v4.5h32.999V13zM31.5 20.5v9h8.999v-9H31.5z"/>
</svg>
