<svg xmlns="http://www.w3.org/2000/svg" width="48" height="48">
    <path fill="none" fill-rule="evenodd" d="M0 0h48v48H0V0z"/>
    <path fill="#FF8237" fill-rule="evenodd" d="M40 42.5H8A5.506 5.506 0 0 1 2.5 37V11.081A5.588 5.588 0 0 1 8.081 5.5H40a5.507 5.507 0 0 1 5.501 5.5v26c0 3.033-2.468 5.5-5.501 5.5zM42.5 11c0-1.379-1.122-2.5-2.5-2.5H8.081A2.585 2.585 0 0 0 5.5 11.081V37c0 1.379 1.12 2.5 2.5 2.5h32c1.378 0 2.5-1.121 2.5-2.5V11zM38 20.5h-8a1.5 1.5 0 0 1 0-3h8a1.5 1.5 0 0 1 0 3zM24.744 34.393a1.5 1.5 0 0 1-1.948-.838 4.9 4.9 0 0 0-1.21-1.764 4.833 4.833 0 0 0-3.294-1.291h-2.584a4.84 4.84 0 0 0-4.504 3.055 1.495 1.495 0 0 1-1.949.838 1.498 1.498 0 0 1-.837-1.947 7.9 7.9 0 0 1 1.955-2.854 7.821 7.821 0 0 1 5.335-2.092h2.584c1.985 0 3.878.742 5.334 2.092a7.89 7.89 0 0 1 1.956 2.854 1.498 1.498 0 0 1-.838 1.947zM17 25.5c-3.309 0-6-2.691-6-6s2.691-6 6-6c3.308 0 6 2.691 6 6s-2.692 6-6 6zm0-9c-1.626 0-3 1.374-3 3s1.374 3 3 3 3-1.374 3-3-1.374-3-3-3zm13 9h4.8a1.5 1.5 0 1 1 0 3H30a1.5 1.5 0 0 1 0-3z"/>
</svg>
